# xmcd
#
# Track frame offsets:
#	150
#	11003
#	22653
#	36558
#	48610
#	65940
#	77453
#	92010
#	107778
#	120945
#
# Disc length: 1763 seconds
#
# Revision: 4
# Processed by: cddbd v1.5.2PL0 Copyright (c) Steve Scherf et al.
# Submitted via: EZCDAudioConverter 6.0.7.1
#
DISCID=7906e10a
DTITLE=David Grey - Signature
DYEAR=1993
DGENRE=Country
TTITLE0=1-900-2-LONELY
TTITLE1=Room For Two
TTITLE2=Honky Tonk Train
TTITLE3=What Never Happened
TTITLE4=Jack
TTITLE5=Come Early Stay Late
TTITLE6=Bad News For The Blues
TTITLE7=Places Only You And I Go
TTITLE8=Cowboy Rock 'N Roll
TTITLE9=How Are Things (On Your Side Of The Bed)
EXTD=
EXTT0=
EXTT1=
EXTT2=
EXTT3=
EXTT4=
EXTT5=
EXTT6=
EXTT7=
EXTT8=
EXTT9=
PLAYORDER=
